<svg width="155" height="42" viewBox="0 0 155 42" fill="none" xmlns="http://www.w3.org/2000/svg">
<path d="M2.664 34V8.44H13.5C14.676 8.44 15.756 8.68 16.74 9.16C17.748 9.64 18.612 10.288 19.332 11.104C20.052 11.92 20.616 12.832 21.024 13.84C21.432 14.848 21.636 15.88 21.636 16.936C21.636 18.376 21.3 19.744 20.628 21.04C19.956 22.336 19.02 23.392 17.82 24.208C16.644 25.024 15.264 25.432 13.68 25.432H7.632V34H2.664ZM7.632 21.076H13.392C14.304 21.076 15.06 20.704 15.66 19.96C16.284 19.192 16.596 18.184 16.596 16.936C16.596 15.616 16.248 14.596 15.552 13.876C14.856 13.156 14.064 12.796 13.176 12.796H7.632V21.076ZM23.0836 28.42C23.0836 27.196 23.4196 26.128 24.0916 25.216C24.7876 24.28 25.7476 23.56 26.9716 23.056C28.1956 22.552 29.5996 22.3 31.1836 22.3C31.9756 22.3 32.7796 22.372 33.5956 22.516C34.4116 22.636 35.1196 22.816 35.7196 23.056V22.048C35.7196 20.848 35.3596 19.924 34.6396 19.276C33.9436 18.628 32.8996 18.304 31.5076 18.304C30.4756 18.304 29.4916 18.484 28.5556 18.844C27.6196 19.204 26.6356 19.732 25.6036 20.428L24.0556 17.26C25.3036 16.444 26.5756 15.832 27.8716 15.424C29.1916 15.016 30.5716 14.812 32.0116 14.812C34.6996 14.812 36.7876 15.484 38.2756 16.828C39.7876 18.172 40.5436 20.092 40.5436 22.588V28.6C40.5436 29.128 40.6276 29.5 40.7956 29.716C40.9636 29.908 41.2636 30.028 41.6956 30.076V34C41.2636 34.096 40.8676 34.156 40.5076 34.18C40.1716 34.228 39.8836 34.252 39.6436 34.252C38.6836 34.252 37.9516 34.036 37.4476 33.604C36.9436 33.172 36.6436 32.644 36.5476 32.02L36.4396 31.048C35.5996 32.128 34.5676 32.956 33.3436 33.532C32.1436 34.084 30.9076 34.36 29.6356 34.36C28.3636 34.36 27.2356 34.108 26.2516 33.604C25.2676 33.076 24.4876 32.368 23.9116 31.48C23.3596 30.568 23.0836 29.548 23.0836 28.42ZM34.8196 29.392C35.4196 28.816 35.7196 28.264 35.7196 27.736V25.828C34.4716 25.324 33.2116 25.072 31.9396 25.072C30.6676 25.072 29.6356 25.348 28.8436 25.9C28.0516 26.428 27.6556 27.136 27.6556 28.024C27.6556 28.744 27.9436 29.392 28.5196 29.968C29.0956 30.544 29.9236 30.832 31.0036 30.832C31.7236 30.832 32.4196 30.7 33.0916 30.436C33.7876 30.172 34.3636 29.824 34.8196 29.392ZM45.0155 7.72H49.8395V27.952C49.8395 28.84 49.9835 29.428 50.2715 29.716C50.5595 30.004 50.9555 30.148 51.4595 30.148C51.8435 30.148 52.2395 30.1 52.6475 30.004C53.0555 29.908 53.4155 29.788 53.7275 29.644L54.3755 33.316C53.7275 33.628 52.9715 33.868 52.1075 34.036C51.2435 34.204 50.4635 34.288 49.7675 34.288C48.2555 34.288 47.0795 33.892 46.2395 33.1C45.4235 32.284 45.0155 31.132 45.0155 29.644V7.72ZM54.7293 21.04C54.7293 19.48 55.0053 17.944 55.5573 16.432C56.1333 14.92 56.9613 13.552 58.0413 12.328C59.1213 11.104 60.4413 10.132 62.0013 9.412C63.5613 8.668 65.3373 8.296 67.3293 8.296C69.6573 8.296 71.6853 8.812 73.4133 9.844C75.1413 10.876 76.4253 12.22 77.2653 13.876L73.4493 16.504C73.0173 15.544 72.4533 14.788 71.7573 14.236C71.0613 13.684 70.3053 13.288 69.4893 13.048C68.6973 12.808 67.9293 12.688 67.1853 12.688C65.9373 12.688 64.8453 12.94 63.9093 13.444C62.9973 13.948 62.2293 14.608 61.6053 15.424C60.9813 16.24 60.5133 17.152 60.2013 18.16C59.9133 19.168 59.7693 20.176 59.7693 21.184C59.7693 22.696 60.0813 24.112 60.7053 25.432C61.3293 26.728 62.2053 27.784 63.3333 28.6C64.4613 29.416 65.7693 29.824 67.2573 29.824C68.0253 29.824 68.8173 29.692 69.6333 29.428C70.4733 29.164 71.2413 28.744 71.9373 28.168C72.6333 27.592 73.1733 26.848 73.5573 25.936L77.6253 28.276C77.0973 29.548 76.2693 30.628 75.1413 31.516C74.0133 32.38 72.7413 33.052 71.3253 33.532C69.9093 33.988 68.5053 34.216 67.1133 34.216C65.2893 34.216 63.6213 33.844 62.1093 33.1C60.6213 32.332 59.3253 31.324 58.2213 30.076C57.1173 28.804 56.2533 27.388 55.6293 25.828C55.0293 24.244 54.7293 22.648 54.7293 21.04ZM80.489 12.508V7.72H85.313V12.508H80.489ZM80.489 34V15.136H85.313V34H80.489ZM100.897 19.312C99.4328 19.312 98.1248 19.6 96.9727 20.176C95.8208 20.728 94.9928 21.532 94.4888 22.588V34H89.6648V15.136H94.0928V19.168C94.7408 17.872 95.5808 16.852 96.6128 16.108C97.6688 15.364 98.7728 14.956 99.9248 14.884C100.429 14.884 100.753 14.896 100.897 14.92V19.312ZM112.125 34.36C110.085 34.36 108.321 33.904 106.833 32.992C105.345 32.08 104.193 30.88 103.377 29.392C102.561 27.904 102.153 26.296 102.153 24.568C102.153 22.816 102.549 21.196 103.341 19.708C104.157 18.22 105.309 17.032 106.797 16.144C108.285 15.256 110.049 14.812 112.089 14.812C114.153 14.812 115.905 15.256 117.345 16.144C118.809 17.032 119.901 18.196 120.621 19.636L115.905 21.076C115.065 19.636 113.781 18.916 112.053 18.916C111.117 18.916 110.277 19.156 109.533 19.636C108.789 20.092 108.201 20.752 107.769 21.616C107.337 22.456 107.121 23.44 107.121 24.568C107.121 25.672 107.337 26.656 107.769 27.52C108.225 28.36 108.825 29.032 109.569 29.536C110.313 30.016 111.141 30.256 112.053 30.256C112.917 30.256 113.709 30.052 114.429 29.644C115.173 29.212 115.689 28.672 115.977 28.024L120.693 29.464C120.045 30.88 118.965 32.056 117.453 32.992C115.965 33.904 114.189 34.36 112.125 34.36ZM123.625 7.72H128.449V27.952C128.449 28.84 128.593 29.428 128.881 29.716C129.169 30.004 129.565 30.148 130.069 30.148C130.453 30.148 130.849 30.1 131.257 30.004C131.665 29.908 132.025 29.788 132.337 29.644L132.985 33.316C132.337 33.628 131.581 33.868 130.717 34.036C129.853 34.204 129.073 34.288 128.377 34.288C126.865 34.288 125.689 33.892 124.849 33.1C124.033 32.284 123.625 31.132 123.625 29.644V7.72ZM143.835 34.36C141.795 34.36 140.031 33.916 138.543 33.028C137.079 32.14 135.939 30.964 135.123 29.5C134.307 28.012 133.899 26.404 133.899 24.676C133.899 22.9 134.295 21.268 135.087 19.78C135.903 18.268 137.055 17.068 138.543 16.18C140.031 15.268 141.807 14.812 143.871 14.812C145.935 14.812 147.699 15.268 149.163 16.18C150.627 17.068 151.743 18.256 152.511 19.744C153.303 21.208 153.699 22.792 153.699 24.496C153.699 25.12 153.663 25.66 153.591 26.116H139.011C139.131 27.58 139.671 28.732 140.631 29.572C141.615 30.412 142.743 30.832 144.015 30.832C144.975 30.832 145.875 30.604 146.715 30.148C147.579 29.668 148.167 29.044 148.479 28.276L152.619 29.428C151.923 30.868 150.807 32.056 149.271 32.992C147.735 33.904 145.923 34.36 143.835 34.36ZM138.903 23.056H148.767C148.623 21.64 148.083 20.5 147.147 19.636C146.235 18.748 145.119 18.304 143.799 18.304C142.503 18.304 141.387 18.748 140.451 19.636C139.539 20.5 139.023 21.64 138.903 23.056Z" fill="#00D3D5"/>
<rect x="5" y="12" width="12" height="10" fill="#00D3D5"/>
<ellipse cx="32" cy="28" rx="5" ry="4" fill="#00D3D5"/>
<ellipse cx="144.5" cy="22" rx="6.5" ry="4" fill="#00D3D5"/>
</svg>
